<svg xmlns="http://www.w3.org/2000/svg" width="135" height="32" viewBox="0 0 135 32" fill="none">
  <path d="M45.239 6.92686C46.2999 6.92686 47.3264 6.89878 48.3468 6.95182C48.5527 6.96118 48.7992 7.25137 48.9334 7.46979C51.1176 10.9801 53.2862 14.5029 55.461 18.0195C55.5453 18.1568 55.6482 18.2847 55.8604 18.5843V6.96742H59.4862V24.984C58.4097 24.984 57.327 24.9996 56.2411 24.9652C56.0913 24.959 55.9197 24.7063 55.8105 24.5346C53.67 21.0742 51.5357 17.6076 49.4014 14.1441C49.2673 13.9288 49.1237 13.7197 48.8679 13.3328V24.9434H45.2358V6.92686H45.239Z" fill="#FF522B"/>
  <path d="M108.387 24.9876C107.042 24.9876 105.801 25.0001 104.562 24.9689C104.421 24.9658 104.231 24.7224 104.156 24.5508C103.517 23.0406 102.883 21.5272 102.281 20.0014C102.091 19.5147 101.85 19.2869 101.282 19.3181C100.324 19.3742 99.3603 19.3337 98.3119 19.3337V24.9471H94.6768V6.97422C94.8328 6.9555 94.9763 6.92118 95.1198 6.92118C97.4632 6.92118 99.8065 6.89934 102.153 6.92742C104.665 6.9555 106.571 8.0476 107.551 10.3941C108.571 12.8341 108.309 15.1993 106.659 17.3242C106.356 17.7143 105.932 18.0107 105.529 18.382C106.459 20.5288 107.398 22.7098 108.384 24.9845L108.387 24.9876ZM98.34 9.73568V16.5816C99.4321 16.5816 100.48 16.5753 101.526 16.5816C102.793 16.5909 103.663 15.9794 104.128 14.8436C104.674 13.5143 104.596 12.1882 103.863 10.9339C103.495 10.3036 102.955 9.79496 102.215 9.7544C100.936 9.68263 99.6505 9.73568 98.34 9.73568Z" fill="#FF522B"/>
  <path d="M76.4076 25.0492C77.0129 23.2956 77.559 21.7074 78.1113 20.1223C79.5841 15.913 81.0693 11.7069 82.5265 7.49135C82.67 7.07324 82.8354 6.89226 83.2972 6.91098C84.1709 6.94842 85.0508 6.94218 85.9245 6.91098C86.3239 6.8985 86.5049 7.04827 86.6297 7.41335C87.7998 10.802 88.9855 14.1875 90.1681 17.573C90.9825 19.9039 91.8 22.2378 92.6144 24.5687C92.6487 24.6685 92.6737 24.7746 92.7329 24.9837C91.5379 24.9837 90.3927 24.9962 89.2476 24.965C89.1353 24.965 88.9824 24.7153 88.9231 24.5531C88.6485 23.7949 88.3989 23.0273 88.118 22.2035C86.6796 22.6684 85.2723 23.124 83.8651 23.5827C82.5546 24.0102 81.2721 24.5562 79.9335 24.837C78.8383 25.0679 77.6807 24.9837 76.4014 25.0461L76.4076 25.0492ZM81.3408 21.4952C83.3752 20.8493 85.2692 20.2502 87.2194 19.6324C86.3426 16.9801 85.497 14.4215 84.6015 11.71C83.4907 15.0424 82.4391 18.2002 81.3377 21.4952H81.3408Z" fill="#FF522B"/>
  <path d="M77.1938 6.92282C76.7507 8.2739 76.3451 9.53762 75.9239 10.7951C74.4448 15.2353 72.9471 19.6692 71.4993 24.1218C71.2684 24.8333 70.9813 25.1703 70.1856 25.0798C69.4274 24.9955 68.6536 25.086 67.8891 25.0454C67.6894 25.033 67.3836 24.8551 67.3243 24.6866C65.3835 18.9234 63.4677 13.154 61.5487 7.3815C61.5081 7.25981 61.4956 7.12875 61.4551 6.92594C62.6252 6.92594 63.7579 6.90721 64.8905 6.94778C65.0372 6.95402 65.2462 7.23484 65.3055 7.42518C66.3789 10.8263 67.4304 14.2305 68.4913 17.6348C68.7316 18.4024 68.9843 19.1668 69.365 19.95C69.6926 18.911 70.0203 17.8688 70.3448 16.8297C71.3277 13.7001 72.3168 10.5704 73.2841 7.43454C73.3995 7.06011 73.5493 6.89785 73.9581 6.91033C75.0034 6.93842 76.0518 6.9197 77.1907 6.9197L77.1938 6.92282Z" fill="#FF522B"/>
  <path d="M120.571 24.9519H116.896V6.96973H129.102V9.64381H120.577V16.7986H126.899V19.3136H120.568V24.9519H120.571Z" fill="#FF522B"/>
  <path d="M38.9575 6.96484H42.5427V24.9502H38.9575V6.96484Z" fill="#FF522B"/>
  <path d="M114.212 24.9583H110.671V6.97607H114.212V24.9583Z" fill="#FF522B"/>
  <path d="M135 24.9658H131.433V6.96484H135V24.9627V24.9658Z" fill="#FF522B"/>
  <path d="M14.217 5.04612L9.56461 9.69846L9.11529 10.1759C5.70793 14.07 6.49737 15.9047 6.98101 16.5038L7.14951 16.6723C6.83748 16.1949 6.89052 15.549 7.30864 15.1278L14.5508 7.88558C14.5852 7.85125 14.6257 7.82317 14.6632 7.79197C14.9783 7.50802 15.2373 7.36449 15.5649 7.27712C15.8052 7.21471 18.4044 6.94013 22.2392 10.775C25.4625 13.9982 25.8119 14.3477 25.8431 14.3789C28.3051 16.7846 26.8572 20.1514 25.4531 22.3075L30.1835 17.5772C31.054 16.7066 31.054 15.2931 30.1835 14.4195L23.5965 7.83253L24.4016 8.65317C17.5713 2.55301 14.6975 4.59991 14.2138 5.04299L14.217 5.04612Z" fill="#FFA900"/>
  <path d="M16.5976 27.0072L21.512 22.0928C25.1409 18.0489 24.3265 16.158 23.8367 15.5495L23.7805 15.4934C23.9864 15.9458 23.9084 16.4981 23.534 16.8725L16.2918 24.1147C16.27 24.1365 16.2419 24.1553 16.2169 24.174C16.2544 24.149 16.2918 24.1272 16.3292 24.096C15.9236 24.5016 15.6365 24.6701 15.2496 24.7731C15.0094 24.8355 12.4102 25.1101 8.57533 21.2752C5.35207 18.052 5.0026 17.7025 4.9714 17.6713C2.48141 15.2375 3.99163 11.8208 5.40512 9.6709L0.65292 14.4231C-0.21764 15.2937 -0.21764 16.7071 0.65292 17.5808L6.89973 23.8276C13.3743 29.3911 16.1233 27.4378 16.5945 27.0072H16.5976Z" fill="#FFA900"/>
  <path d="M15.4215 31.4183C15.9925 31.4183 16.5635 31.1999 17.0004 30.7631L25.4564 22.3071C26.8574 20.151 28.3052 16.7842 25.8464 14.3785C25.8152 14.3473 25.4657 13.9978 22.2425 10.7745C18.4076 6.93969 15.8084 7.21427 15.5682 7.27668C15.2405 7.36405 14.9816 7.50758 14.6664 7.79153C15.15 7.41085 15.849 7.43894 16.2952 7.88514L23.5374 15.1273C23.6435 15.2334 23.7246 15.3582 23.7839 15.4893L23.84 15.5454C24.3299 16.1539 25.1412 18.0448 21.5154 22.0887L16.601 27.0031C16.1298 27.4369 13.3808 29.3902 6.90625 23.8236L13.8458 30.7631C14.2826 31.1999 14.8536 31.4183 15.4246 31.4183H15.4215Z" fill="#FF6340"/>
  <path d="M4.97125 17.6714C5.00245 17.7026 5.35192 18.052 8.57518 21.2753C12.41 25.1101 15.0092 24.8355 15.2495 24.7731C15.6364 24.6702 15.9235 24.5017 16.3291 24.096C16.2917 24.1272 16.2542 24.1491 16.2168 24.174C15.7331 24.589 15.0061 24.5703 14.5505 24.1147L14.3415 23.9057C14.1511 23.7403 14.0357 23.5999 14.0357 23.5999H14.0326L7.30834 16.8726C7.24594 16.8102 7.19289 16.7446 7.14921 16.676L6.98071 16.5075C6.50019 15.9084 5.71076 14.0737 9.11499 10.1795L9.56431 9.70214L14.2167 5.04979C14.7003 4.60671 17.5741 2.55981 24.4044 8.65997L23.5994 7.83933L16.9968 1.2368C16.56 0.799963 15.989 0.581543 15.418 0.581543C14.847 0.581543 14.2759 0.799963 13.8391 1.2368L5.40185 9.67406C3.98524 11.8271 2.47814 15.2407 4.96813 17.6745L4.97125 17.6714Z" fill="#FF6340"/>
  <path d="M24.4077 8.6603C22.1268 6.9535 17.0251 3.10306 14.3386 5.48384C13.7707 6.07358 11.7831 8.02688 11.1684 8.63533C10.3977 9.39668 9.57702 10.1206 8.89991 10.9256C7.683 12.4046 5.7609 14.9134 7.23056 16.7637C5.42703 15.0538 7.21184 12.0957 8.41315 10.5293C8.9748 9.7524 9.96393 8.80071 10.6286 8.10177C11.2495 7.47459 13.1872 5.50257 13.7925 4.91907C16.9939 2.10145 22.158 6.31384 24.4046 8.66342L24.4077 8.6603Z" fill="white"/>
  <path d="M6.46338 23.3226C8.74431 25.0294 13.846 28.8799 16.5325 26.4991C17.1004 25.9093 19.0881 23.956 19.7028 23.3476C20.4735 22.5862 21.2941 21.8623 21.9712 21.0573C23.1881 19.5783 25.1102 17.0696 23.6406 15.2192C25.4441 16.9292 23.6593 19.8872 22.458 21.4536C21.8963 22.2305 20.9072 23.1822 20.2426 23.8812C19.6216 24.5083 17.6839 26.4804 17.0786 27.0639C13.8772 29.8815 8.71311 25.6691 6.4665 23.3195L6.46338 23.3226Z" fill="white"/>
</svg>